<svg width="833" height="228" viewBox="0 0 833 228" fill="none" xmlns="http://www.w3.org/2000/svg">
<path d="M268.781 134.633H222.305L210.211 161H192.562L246.281 45.6172L298.102 161H280.172L268.781 134.633ZM262.102 119.234L246 82.3203L229.125 119.234H262.102ZM317.198 92.5156V131.82C317.198 143.164 321.675 148.836 330.628 148.836C339.581 148.836 344.058 143.164 344.058 131.82V92.5156H359.878V132.172C359.878 137.656 359.198 142.391 357.839 146.375C356.527 149.938 354.253 153.148 351.019 156.008C345.675 160.648 338.878 162.969 330.628 162.969C322.425 162.969 315.652 160.648 310.308 156.008C307.027 153.148 304.706 149.938 303.347 146.375C302.034 143.188 301.378 138.453 301.378 132.172V92.5156H317.198ZM423.131 42.2422H439.022V161H423.131V153.828C416.897 159.922 409.842 162.969 401.967 162.969C392.592 162.969 384.811 159.547 378.623 152.703C372.483 145.719 369.413 137 369.413 126.547C369.413 116.328 372.483 107.797 378.623 100.953C384.717 94.0625 392.381 90.6172 401.616 90.6172C409.631 90.6172 416.803 93.8984 423.131 100.461V42.2422ZM385.584 126.547C385.584 133.109 387.342 138.453 390.858 142.578C394.467 146.75 399.014 148.836 404.498 148.836C410.358 148.836 415.092 146.82 418.702 142.789C422.311 138.617 424.116 133.32 424.116 126.898C424.116 120.477 422.311 115.18 418.702 111.008C415.092 106.93 410.405 104.891 404.639 104.891C399.202 104.891 394.655 106.953 390.998 111.078C387.389 115.25 385.584 120.406 385.584 126.547ZM467.611 92.5156V161H451.791V92.5156H467.611ZM449.4 64.0391C449.4 61.2734 450.408 58.8828 452.423 56.8672C454.439 54.8516 456.853 53.8438 459.666 53.8438C462.525 53.8438 464.962 54.8516 466.978 56.8672C468.994 58.8359 470.002 61.25 470.002 64.1094C470.002 66.9688 468.994 69.4062 466.978 71.4219C465.009 73.4375 462.595 74.4453 459.736 74.4453C456.877 74.4453 454.439 73.4375 452.423 71.4219C450.408 69.4062 449.4 66.9453 449.4 64.0391ZM477.216 126.266C477.216 116.375 480.755 107.961 487.833 101.023C494.911 94.0859 503.536 90.6172 513.708 90.6172C523.927 90.6172 532.598 94.1094 539.723 101.094C546.755 108.078 550.27 116.656 550.27 126.828C550.27 137.094 546.731 145.695 539.653 152.633C532.528 159.523 523.786 162.969 513.427 162.969C503.161 162.969 494.559 159.453 487.622 152.422C480.684 145.484 477.216 136.766 477.216 126.266ZM493.388 126.547C493.388 133.391 495.216 138.805 498.872 142.789C502.622 146.82 507.567 148.836 513.708 148.836C519.895 148.836 524.841 146.844 528.544 142.859C532.247 138.875 534.098 133.555 534.098 126.898C534.098 120.242 532.247 114.922 528.544 110.938C524.794 106.906 519.848 104.891 513.708 104.891C507.661 104.891 502.763 106.906 499.013 110.938C495.263 114.969 493.388 120.172 493.388 126.547ZM613.172 95.4688V116.492C609.562 112.086 606.328 109.062 603.469 107.422C600.656 105.734 597.352 104.891 593.555 104.891C587.602 104.891 582.656 106.977 578.719 111.148C574.781 115.32 572.812 120.547 572.812 126.828C572.812 133.25 574.711 138.523 578.508 142.648C582.352 146.773 587.25 148.836 593.203 148.836C597 148.836 600.352 148.016 603.258 146.375C606.07 144.781 609.375 141.688 613.172 137.094V157.977C606.75 161.305 600.328 162.969 593.906 162.969C583.312 162.969 574.453 159.547 567.328 152.703C560.203 145.812 556.641 137.258 556.641 127.039C556.641 116.82 560.25 108.195 567.469 101.164C574.688 94.1328 583.547 90.6172 594.047 90.6172C600.797 90.6172 607.172 92.2344 613.172 95.4688ZM671.784 92.5156H687.675V161H671.784V153.828C665.269 159.922 658.261 162.969 650.761 162.969C641.292 162.969 633.464 159.547 627.277 152.703C621.136 145.719 618.066 137 618.066 126.547C618.066 116.281 621.136 107.727 627.277 100.883C633.417 94.0391 641.105 90.6172 650.339 90.6172C658.308 90.6172 665.456 93.8984 671.784 100.461V92.5156ZM634.237 126.547C634.237 133.109 635.995 138.453 639.511 142.578C643.12 146.75 647.667 148.836 653.152 148.836C659.011 148.836 663.745 146.82 667.355 142.789C670.964 138.617 672.769 133.32 672.769 126.898C672.769 120.477 670.964 115.18 667.355 111.008C663.745 106.93 659.058 104.891 653.292 104.891C647.855 104.891 643.308 106.953 639.652 111.078C636.042 115.25 634.237 120.406 634.237 126.547ZM740.241 104.188L727.163 111.148C725.1 106.93 722.545 104.82 719.498 104.82C718.045 104.82 716.803 105.312 715.772 106.297C714.741 107.234 714.225 108.453 714.225 109.953C714.225 112.578 717.272 115.18 723.366 117.758C731.756 121.367 737.405 124.695 740.311 127.742C743.217 130.789 744.67 134.891 744.67 140.047C744.67 146.656 742.233 152.188 737.358 156.641C732.623 160.859 726.905 162.969 720.202 162.969C708.717 162.969 700.584 157.367 695.803 146.164L709.303 139.906C711.178 143.188 712.608 145.273 713.592 146.164C715.514 147.945 717.811 148.836 720.483 148.836C725.827 148.836 728.498 146.398 728.498 141.523C728.498 138.711 726.436 136.086 722.311 133.648C720.717 132.852 719.123 132.078 717.53 131.328C715.936 130.578 714.319 129.805 712.678 129.008C708.084 126.758 704.85 124.508 702.975 122.258C700.584 119.398 699.389 115.719 699.389 111.219C699.389 105.266 701.428 100.344 705.506 96.4531C709.678 92.5625 714.741 90.6172 720.694 90.6172C729.459 90.6172 735.975 95.1406 740.241 104.188ZM768.056 107.281V161H752.236V107.281H745.486V92.5156H752.236V67.4141H768.056V92.5156H780.361V107.281H768.056ZM823.716 104.188L810.638 111.148C808.575 106.93 806.02 104.82 802.973 104.82C801.52 104.82 800.278 105.312 799.247 106.297C798.216 107.234 797.7 108.453 797.7 109.953C797.7 112.578 800.747 115.18 806.841 117.758C815.231 121.367 820.88 124.695 823.786 127.742C826.692 130.789 828.145 134.891 828.145 140.047C828.145 146.656 825.708 152.188 820.833 156.641C816.098 160.859 810.38 162.969 803.677 162.969C792.192 162.969 784.059 157.367 779.278 146.164L792.778 139.906C794.653 143.188 796.083 145.273 797.067 146.164C798.989 147.945 801.286 148.836 803.958 148.836C809.302 148.836 811.973 146.398 811.973 141.523C811.973 138.711 809.911 136.086 805.786 133.648C804.192 132.852 802.598 132.078 801.005 131.328C799.411 130.578 797.794 129.805 796.153 129.008C791.559 126.758 788.325 124.508 786.45 122.258C784.059 119.398 782.864 115.719 782.864 111.219C782.864 105.266 784.903 100.344 788.981 96.4531C793.153 92.5625 798.216 90.6172 804.169 90.6172C812.934 90.6172 819.45 95.1406 823.716 104.188Z" fill="#252F3F"/>
<rect y="70" width="17" height="87" rx="8.5" fill="#524EF2"/>
<rect x="27" y="45" width="17" height="137" rx="8.5" fill="#524EF2"/>
<rect width="17" height="50" rx="8.5" transform="matrix(-1 0 0 1 126 93)" fill="#524EF2"/>
<rect width="17" height="95" rx="8.5" transform="matrix(-1 0 0 1 99 66)" fill="#524EF2"/>
<rect x="55" y="27" width="16" height="173" rx="8" fill="#524EF2"/>
</svg>
