<?xml version="1.0" standalone="no"?>
<!DOCTYPE svg PUBLIC "-//W3C//DTD SVG 20010904//EN"
 "http://www.w3.org/TR/2001/REC-SVG-20010904/DTD/svg10.dtd">
<svg version="1.0" xmlns="http://www.w3.org/2000/svg"
 width="692.000000pt" height="692.000000pt" viewBox="0 0 692.000000 692.000000"
 preserveAspectRatio="xMidYMid meet">
<metadata>
Created by potrace 1.11, written by Peter Selinger 2001-2013
</metadata>
<g transform="translate(0.000000,692.000000) scale(0.100000,-0.100000)"
fill="#000000" stroke="none">
<path d="M3399 6916 c-3 -3 -14 -7 -25 -9 -76 -15 -163 -89 -206 -175 l-23
-47 0 -3225 0 -3225 21 -46 c28 -60 97 -129 159 -159 67 -32 197 -34 265 -3
58 26 134 101 163 161 l22 47 0 3225 0 3225 -21 46 c-29 60 -98 129 -159 158
-46 22 -183 41 -196 27z"/>
<path d="M2273 6191 c-53 -13 -142 -73 -178 -120 -19 -24 -44 -68 -55 -98 -20
-54 -20 -66 -18 -2533 2 -1967 6 -2482 16 -2492 6 -6 12 -20 12 -30 0 -10 5
-18 10 -18 6 0 10 -6 10 -13 0 -25 86 -104 145 -133 52 -25 71 -29 145 -29 73
0 93 4 143 29 32 15 75 45 96 65 46 45 90 132 96 191 10 96 5 4881 -5 4926
-33 148 -160 253 -315 259 -38 2 -85 0 -102 -4z"/>
<path d="M4437 5336 c-32 -13 -65 -30 -75 -37 -69 -54 -127 -148 -136 -224 -6
-50 -7 -3164 -1 -3224 7 -62 45 -139 95 -189 73 -72 152 -102 259 -98 124 5
236 80 290 196 l26 55 0 1645 0 1645 -26 55 c-59 122 -164 191 -299 196 -60 3
-86 -2 -133 -20z"/>
<path d="M1200 5193 c-100 -30 -186 -103 -229 -193 l-26 -55 -2 -1480 -2
-1480 28 -60 c35 -76 94 -136 168 -172 49 -23 71 -28 143 -28 73 0 93 4 141
27 74 37 129 91 165 163 l29 60 0 1485 0 1485 -26 55 c-59 122 -168 194 -299
196 -41 1 -82 -1 -90 -3z"/>
<path d="M5560 4270 c-111 -34 -179 -90 -226 -185 l-29 -60 0 -745 0 -745 26
-55 c32 -69 95 -132 168 -168 49 -23 68 -27 146 -27 80 1 96 4 143 30 74 40
129 96 160 163 l27 57 0 745 0 745 -26 55 c-50 107 -155 183 -269 196 -30 3
-57 7 -60 8 -3 2 -30 -5 -60 -14z"/>
</g>
</svg>
